<?xml version="1.0" standalone="no"?>
<!DOCTYPE svg PUBLIC "-//W3C//DTD SVG 20010904//EN"
 "http://www.w3.org/TR/2001/REC-SVG-20010904/DTD/svg10.dtd">
<svg version="1.0" xmlns="http://www.w3.org/2000/svg"
 width="512.000000pt" height="512.000000pt" viewBox="0 0 512 512"
 preserveAspectRatio="xMidYMid meet">

<g transform="translate(0.000000,512.000000) scale(0.100000,-0.100000)"
fill="#000000" stroke="none">
<path d="M0 2560 l0 -2560 2560 0 2560 0 0 2560 0 2560 -2560 0 -2560 0 0
-2560z m2250 831 l0 -219 58 28 c125 63 272 77 418 40 506 -128 700 -730 367
-1134 -90 -110 -239 -200 -380 -232 -56 -12 -105 -15 -191 -12 -194 9 -316 63
-458 203 -92 91 -146 179 -183 300 l-25 80 -4 569 c-2 313 -1 575 2 582 4 11
44 14 201 14 l195 0 0 -219z m-1026 -151 c123 -31 228 -92 321 -185 89 -89
135 -159 171 -263 38 -110 44 -184 44 -564 l0 -358 -195 0 -195 0 0 54 0 54
-57 -38 c-85 -56 -165 -80 -270 -80 -364 1 -666 286 -690 653 -22 335 201 642
527 727 102 26 243 26 344 0z m3010 0 c164 -42 319 -151 411 -290 46 -69 96
-190 109 -262 l7 -38 -200 0 -201 0 -24 48 c-73 144 -252 207 -397 140 -117
-54 -179 -150 -179 -280 0 -67 4 -84 33 -139 97 -189 346 -224 491 -69 25 26
52 64 60 84 l15 36 198 -2 198 -3 -3 -35 c-2 -19 -14 -66 -27 -103 -67 -196
-235 -362 -436 -433 -99 -35 -272 -44 -382 -20 -240 54 -428 226 -513 471 -26
72 -28 93 -28 215 0 122 2 143 28 215 81 235 262 404 496 464 102 27 243 27
344 1z"/>
<path d="M2487 2860 c-224 -56 -312 -331 -161 -499 150 -167 400 -138 501 58
29 55 33 72 33 139 0 91 -26 158 -85 217 -71 70 -197 107 -288 85z"/>
<path d="M987 2860 c-89 -23 -168 -84 -209 -163 -16 -30 -23 -65 -26 -127 -4
-81 -2 -88 30 -150 102 -197 352 -226 502 -59 165 183 44 481 -205 503 -30 3
-71 1 -92 -4z"/>
</g>
</svg>
